<svg xmlns="http://www.w3.org/2000/svg" xmlns:xlink="http://www.w3.org/1999/xlink" width="1413" height="794" viewBox="0 0 1413 794"><defs><linearGradient id="linear-gradient" x1="0.493" y1="-0.262" x2="0.502" y2="0.625" gradientUnits="objectBoundingBox"><stop offset="0" stop-color="#fff" stop-opacity="0"></stop><stop offset="0.97" stop-color="#fff"></stop></linearGradient><linearGradient id="linear-gradient-2" x1="0.47" y1="0.031" x2="0.645" y2="2.399" gradientUnits="objectBoundingBox"><stop offset="0" stop-opacity="0"></stop><stop offset="0.97"></stop></linearGradient><linearGradient id="linear-gradient-3" x1="0.474" y1="0.081" x2="0.586" y2="1.896" xlink:href="#linear-gradient"></linearGradient><linearGradient id="linear-gradient-4" x1="0.491" y1="1.349" x2="0.505" y2="0.021" xlink:href="#linear-gradient"></linearGradient><linearGradient id="linear-gradient-5" x1="0.508" y1="0.501" x2="-0.043" y2="0.303" xlink:href="#linear-gradient"></linearGradient><linearGradient id="linear-gradient-6" x1="0.623" y1="0.212" x2="0.881" y2="-0.732" xlink:href="#linear-gradient"></linearGradient><linearGradient id="linear-gradient-7" x1="-2.166" y1="0.538" x2="4.621" y2="0.439" xlink:href="#linear-gradient"></linearGradient><linearGradient id="linear-gradient-8" x1="0.584" y1="1.132" x2="-0.371" y2="-5.504" xlink:href="#linear-gradient-2"></linearGradient><linearGradient id="linear-gradient-9" x1="0.422" y1="0.308" x2="2.344" y2="2.174" xlink:href="#linear-gradient-2"></linearGradient><linearGradient id="linear-gradient-10" y1="0.5" x2="1" y2="0.5" gradientUnits="objectBoundingBox"><stop offset="0" stop-color="#ecc4d7"></stop><stop offset="0.42" stop-color="#efd4d1"></stop><stop offset="1" stop-color="#f2eac9"></stop></linearGradient><linearGradient id="linear-gradient-11" x1="0.005" y1="0.499" x2="1.007" y2="0.499" xlink:href="#linear-gradient-10"></linearGradient><linearGradient id="linear-gradient-12" x1="0.132" y1="0.477" x2="0.857" y2="0.52" xlink:href="#linear-gradient-2"></linearGradient><linearGradient id="linear-gradient-13" x1="-0.001" y1="0.5" x2="1" y2="0.5" xlink:href="#linear-gradient-2"></linearGradient><linearGradient id="linear-gradient-14" x1="0.156" y1="0.513" x2="1.17" y2="0.475" xlink:href="#linear-gradient-2"></linearGradient><linearGradient id="linear-gradient-15" x1="0.504" y1="0.997" x2="0.502" y2="0.49" xlink:href="#linear-gradient"></linearGradient><linearGradient id="linear-gradient-16" x1="2.364" y1="0.309" x2="-5.492" y2="1.11" xlink:href="#linear-gradient-2"></linearGradient><linearGradient id="linear-gradient-17" x1="0.544" y1="0.471" x2="1.882" y2="3.491" xlink:href="#linear-gradient-2"></linearGradient><linearGradient id="linear-gradient-18" x1="-0.338" y1="0.515" x2="0.94" y2="0.496" xlink:href="#linear-gradient"></linearGradient><linearGradient id="linear-gradient-19" x1="-0.109" y1="0.483" x2="0.585" y2="0.499" xlink:href="#linear-gradient"></linearGradient><linearGradient id="linear-gradient-20" x1="-0.138" y1="1.672" x2="1.295" y2="-1.267" xlink:href="#linear-gradient-2"></linearGradient><linearGradient id="linear-gradient-21" x1="0" y1="0.5" x2="1" y2="0.5" xlink:href="#linear-gradient"></linearGradient><linearGradient id="linear-gradient-22" x1="0.354" y1="0.417" x2="0.916" y2="0.884" xlink:href="#linear-gradient-10"></linearGradient><linearGradient id="linear-gradient-23" x1="0.115" y1="0.127" x2="0.732" y2="0.64" xlink:href="#linear-gradient-10"></linearGradient><linearGradient id="linear-gradient-24" x1="0" y1="0.501" x2="1" y2="0.501" xlink:href="#linear-gradient-10"></linearGradient><linearGradient id="linear-gradient-25" x1="0" y1="0.497" x2="0.999" y2="0.497" xlink:href="#linear-gradient-10"></linearGradient><linearGradient id="linear-gradient-26" x1="0.421" y1="0.503" x2="0.71" y2="0.452" xlink:href="#linear-gradient"></linearGradient><linearGradient id="linear-gradient-27" x1="0.241" y1="0.473" x2="1.068" y2="0.617" xlink:href="#linear-gradient"></linearGradient><linearGradient id="linear-gradient-28" x1="0.2" y1="0.5" x2="1.2" y2="0.5" xlink:href="#linear-gradient"></linearGradient><linearGradient id="linear-gradient-29" x1="0" y1="0.5" x2="1" y2="0.5" xlink:href="#linear-gradient"></linearGradient><linearGradient id="linear-gradient-30" x1="0" y1="0.5" x2="1" y2="0.5" xlink:href="#linear-gradient-2"></linearGradient><linearGradient id="linear-gradient-31" x1="0" y1="0.481" x2="1" y2="0.481" xlink:href="#linear-gradient-2"></linearGradient><linearGradient id="linear-gradient-32" x1="0.448" y1="0.5" x2="-0.114" y2="0.501" xlink:href="#linear-gradient"></linearGradient><linearGradient id="linear-gradient-33" x1="0.505" y1="1.352" x2="0.501" y2="0.238" xlink:href="#linear-gradient"></linearGradient><linearGradient id="linear-gradient-34" x1="0.365" y1="0.239" x2="1.259" y2="1.87" xlink:href="#linear-gradient"></linearGradient><linearGradient id="linear-gradient-35" x1="-0.109" y1="-1.412" x2="1.391" y2="3.298" gradientUnits="objectBoundingBox"><stop offset="0" stop-color="#fff" stop-opacity="0"></stop><stop offset="0.97" stop-color="#0c62ac"></stop><stop offset="1" stop-color="#0c62ac"></stop></linearGradient><linearGradient id="linear-gradient-36" x1="1.322" y1="0.567" x2="-0.053" y2="0.455" xlink:href="#linear-gradient"></linearGradient><linearGradient id="linear-gradient-37" x1="0.297" y1="0.466" x2="0.949" y2="0.521" xlink:href="#linear-gradient-10"></linearGradient><clipPath id="clip-Login_page_logo"><rect width="1413" height="794"></rect></clipPath></defs><g id="Login_page_logo" data-name="Login page logo" clip-path="url(#clip-Login_page_logo)"><rect width="1413" height="794" fill="#fff"></rect><g id="Group_351" data-name="Group 351" transform="translate(171 70)"><path id="Path_145" data-name="Path 145" d="M533.687,169.819c427.892,456.238,553.743,413.828,585.594,633.525S828.434,1181.1,533.687,1181.1,0,954.715,0,675.458,122.838-326.715,533.687,169.819Z" transform="matrix(0.966, 0.259, -0.259, 0.966, -468.998, -484.93)" fill="rgba(12,98,172,0.39)"></path><path id="Path_144" data-name="Path 144" d="M533.687,169.819c427.892,456.238,553.743,413.828,585.594,633.525S828.434,1181.1,533.687,1181.1,0,954.715,0,675.458,122.838-326.715,533.687,169.819Z" transform="matrix(0.985, 0.174, -0.174, 0.985, -569.593, -389.111)" fill="#94a2cf"></path><g id="Group_194" data-name="Group 194" transform="translate(-118.325 175.452)"><path id="Path_85" data-name="Path 85" d="M652.1,328.334c-3.109,31.986,2.725,107.153-53.365,157.2-37.372,33.342-102.227,55.528-215.509,46.38C99.9,509.042,74.361,572.068,37.4,431.009c0,0-1.446-60.914-17.3-76.037S.435,289.951.435,289.951s-4.977-71.418,70.753-110.185,114.625,20.1,150.654,8.675,16.364-66.185,84.558-92.12,102.189-15.852,134.9,0,87.437,26.753,119.154,10.491,81.884,6.628,72.7,62.693S657.3,275.033,652.1,328.334Z" transform="translate(-0.368 -50.453)" fill="#a0c2df" opacity="0.25"></path><path id="Path_86" data-name="Path 86" d="M652.1,328.334c-3.109,31.986,2.725,107.153-53.365,157.2-28.007,25-71.482,43.718-139.216,47.685a551.927,551.927,0,0,1-76.293-1.279C118.1,510.539,78.724,564.34,44.447,455.779c-2.329-7.421-4.67-15.7-7.05-24.77,0,0-1.446-60.914-17.3-76.037S.435,289.951.435,289.951s-4.977-71.418,70.753-110.185,114.625,20.1,150.654,8.675,16.364-66.185,84.558-92.12,102.189-15.852,134.9,0,87.437,26.753,119.154,10.491,81.884,6.628,72.7,62.693S657.3,275.033,652.1,328.334Z" transform="translate(-0.368 -50.504)" fill="#a0c2df" opacity="0.25"></path><path id="Path_87" data-name="Path 87" d="M463.842,422.848c-.6,25.947-6.871,50.129-13.946,69.461a551.91,551.91,0,0,1-76.293-1.28c-265.126-21.4-304.507,32.4-338.783-76.165l52.457-65.482S275.457,208.644,495.751,228.6,465.275,360.936,463.842,422.848Z" transform="translate(9.26 -9.589)" fill="#0c62ac" opacity="0.42"></path><path id="Path_88" data-name="Path 88" d="M592.417,442.818l-1.766,3.9c-37.372,33.342-102.227,55.528-215.509,46.38C91.811,470.237,66.273,533.262,29.31,392.2c0,0,22.557-88.563,21.456-172.9l77.713,43.8s-.384,170.242,13.895,184.789,40.059,31.167,40.686-9.57S319.41,231.378,376.038,294.109s42.746,97.033,45.152,117.542-4.862,57.575,25.243,58.483,71.559-3.685,71.559-3.685Z" transform="translate(7.72 -11.647)" fill="#a0c2df" opacity="0.25"></path><path id="Path_89" data-name="Path 89" d="M123.793,200.46V449.951a38.857,38.857,0,1,1-77.713,0V200.46Z" transform="translate(12.406 -16.912)" fill="#0c62ac"></path><path id="Path_90" data-name="Path 90" d="M123.793,200.46V449.951a38.857,38.857,0,1,1-77.713,0V200.46Z" transform="translate(12.6 -17.113)" fill="url(#linear-gradient)"></path><path id="Path_91" data-name="Path 91" d="M111.122,253.53V432.178c0,15.213-11.924,28.071-27.124,28.493a27.917,27.917,0,0,1-28.7-27.9V253.53l8.572,5.348a38.166,38.166,0,0,0,46.06-4.286Z" transform="translate(14.983 -2.082)" fill="#0c62ac"></path><path id="Path_92" data-name="Path 92" d="M111.122,253.53V432.178c0,15.213-11.924,28.071-27.124,28.493a27.917,27.917,0,0,1-28.7-27.9V253.53l8.572,5.348a38.166,38.166,0,0,0,46.06-4.286Z" transform="translate(15.405 -2.082)" fill="url(#linear-gradient-2)"></path><rect id="Rectangle_208" data-name="Rectangle 208" width="107.204" height="21.968" rx="8.59" transform="translate(250.517 56.372)" fill="#0c62ac"></rect><rect id="Rectangle_209" data-name="Rectangle 209" width="107.204" height="21.968" rx="8.59" transform="translate(250.398 56.358)" fill="url(#linear-gradient-3)"></rect><rect id="Rectangle_210" data-name="Rectangle 210" width="107.204" height="21.968" rx="8.59" transform="translate(250.398 56.372)" fill="url(#linear-gradient-4)"></rect><path id="Path_93" data-name="Path 93" d="M404.093,385.086A136.273,136.273,0,0,1,266.847,521.359c-75.231-.537-136.2-62.757-135.275-137.975A136.273,136.273,0,0,1,211.7,260.878a33.56,33.56,0,0,0,19.742-30.566V118.22h72.839V230.337a33.6,33.6,0,0,0,19.755,30.591A136.286,136.286,0,0,1,404.093,385.086Z" transform="translate(36.293 -39.893)" fill="#0c62ac"></path><path id="Path_94" data-name="Path 94" d="M404.093,385.086A136.273,136.273,0,0,1,266.847,521.359c-75.231-.537-136.2-62.757-135.275-137.975A136.273,136.273,0,0,1,211.7,260.878a33.56,33.56,0,0,0,19.742-30.566V118.22h72.839V230.337a33.6,33.6,0,0,0,19.755,30.591A136.286,136.286,0,0,1,404.093,385.086Z" transform="translate(36.643 -39.879)" fill="url(#linear-gradient-5)"></path><path id="Path_95" data-name="Path 95" d="M404.093,385.086A136.273,136.273,0,0,1,266.847,521.359c-75.231-.537-136.2-62.757-135.275-137.975A136.273,136.273,0,0,1,211.7,260.878a33.56,33.56,0,0,0,19.742-30.566V118.22h72.839V230.337a33.6,33.6,0,0,0,19.755,30.591A136.286,136.286,0,0,1,404.093,385.086Z" transform="translate(36.172 -39.893)" fill="url(#linear-gradient-6)"></path><path id="Path_96" data-name="Path 96" d="M393.783,385.339A126.933,126.933,0,0,1,265.941,512.272c-70.075-.5-126.857-58.458-126-128.52a126.946,126.946,0,0,1,74.642-114.1c11.182-5.118,23.67-16.185,23.67-28.468V118.23h54.632V241.21c0,12.308,15.161,23.414,26.357,28.493A126.933,126.933,0,0,1,393.783,385.339Z" transform="translate(38.633 -42.92)" fill="url(#linear-gradient-7)"></path><path id="Path_97" data-name="Path 97" d="M190.7,335.782s-12.283-8.649-41.2-3.365c0,0-2.994-17.733,23.9-20.394s85.428,7.421,110.684-7.945,69.755-26.868,89.778,7.945c0,0-44.358,6.4-64.049,23.759S223.377,355.037,190.7,335.782Z" transform="translate(41.279 7.888)" fill="#a0c2df"></path><path id="Path_98" data-name="Path 98" d="M190.7,335.782s-12.283-8.649-41.2-3.365c0,0-2.994-17.733,23.9-20.394s85.428,7.421,110.684-7.945,69.755-26.868,89.778,7.945c0,0-44.358,6.4-64.049,23.759S223.377,355.037,190.7,335.782Z" transform="translate(38.658 7.888)" fill="url(#linear-gradient-8)"></path><path id="Path_99" data-name="Path 99" d="M378.9,336.406a114.711,114.711,0,1,1-229.423,0c.006-63.345,76.773,38.191,120.389-7.741C311.254,285.088,378.9,273.061,378.9,336.406Z" transform="translate(41.299 8.787)" fill="#0c62ac"></path><path id="Path_100" data-name="Path 100" d="M378.9,336.406a114.711,114.711,0,1,1-229.423,0c.006-63.345,76.773,38.191,120.389-7.741C311.254,285.088,378.9,273.061,378.9,336.406Z" transform="translate(41.304 9.933)" fill="url(#linear-gradient-9)"></path><path id="Path_101" data-name="Path 101" d="M463.628,410.766s-6.563,13.2-6.205,16.159,6.5,3.531,12.436,0,10.415-13.268,10.415-13.268l1.471,6.4h2.879l-4.35-15.955S468.042,409.09,463.628,410.766Z" transform="translate(127.348 39.993)" fill="#25233a"></path><path id="Path_102" data-name="Path 102" d="M423.823,405.55a12.155,12.155,0,0,1,1.215,5.182c-.179,2.341-1.215,10.632-1.215,10.632h-2.38v-4.683s-6.845,6.666-10.811,7.561-13.511,3.838-16.21,1.279,12.18-14.842,12.18-14.842Z" transform="translate(109.655 40.399)" fill="#25233a"></path><path id="Path_103" data-name="Path 103" d="M406.041,413.137c-1.6,1.471-3.979,3.25-3.045,5.207a3.237,3.237,0,0,0,2.265,1.548c2.789.652,5.681-.32,8.368-1.279a14.736,14.736,0,0,0,4.453-2.188,9.992,9.992,0,0,0,3.314-6.666c.294-2.559,1.087-8.265.742-10.786-.716-5.041-5.45-12.321-8.956-6.077C410.417,398.04,410.826,408.749,406.041,413.137Z" transform="translate(112.084 36.189)" fill="url(#linear-gradient-10)"></path><path id="Path_104" data-name="Path 104" d="M464.462,393.918a.716.716,0,0,1,.96.448l-1.535.09c-1.586,2.1-.243,5.028,0,7.677.921,8.368-4.465,17.912-4.03,18.373a13.722,13.722,0,0,0,3.454,1.164c5.323,1.407,12.5-7.5,15.353-12.193a4.657,4.657,0,0,0,.806-2.047,5.04,5.04,0,0,0-.768-2.559l-3.173-6.269c-1.51-2.968-3.749-6.4-7.075-6.193C465.907,392.588,465.907,391.667,464.462,393.918Z" transform="translate(128.025 36.715)" fill="url(#linear-gradient-11)"></path><path id="Path_105" data-name="Path 105" d="M407.761,335.105a107.166,107.166,0,0,0-4.811,26.382c-.345,9.647,1.216,19.192,2.764,28.519l3.838,23.094c.857,5.118-1,11.323,1.356,15.161s9.391,4.593,11.873.972c-.282-17.439-.64-27.994.7-45.3.96-12.359,5.118-26.472,10.709-35.223,3.838-5.937,17.707-28.775,21.443-34.8s3.122-8.751,2.2-17.081c-1.8-16.287-24.6-11.438-32.306-3.365C417.523,301.827,411.651,321.825,407.761,335.105Z" transform="translate(112.117 6.991)" fill="#0c62ac"></path><path id="Path_106" data-name="Path 106" d="M455.618,313.892c-1.1,1.778-3.071,4.99-5.4,8.8-5.629,9.174-13.37,21.751-16.044,26-5.591,8.751-9.749,22.864-10.709,35.223-1.343,17.311-.985,27.866-.7,45.305a5.565,5.565,0,0,1-3.736,2.226,8.861,8.861,0,0,1-2.789,0h-.064a7.536,7.536,0,0,1-5.284-3.186c-2.354-3.838-.5-9.992-1.356-15.161q-1.906-11.515-3.838-23.094c-1.548-9.34-3.109-18.872-2.764-28.519a107.164,107.164,0,0,1,4.811-26.369c3.838-13.255,9.762-33.265,17.746-41.658,7.677-8.073,30.5-12.922,32.306,3.365C458.74,305.192,459.328,307.866,455.618,313.892Z" transform="translate(112.111 6.991)" fill="url(#linear-gradient-12)"></path><path id="Path_107" data-name="Path 107" d="M447.316,316.81c-5.629,9.174-13.37,21.751-16.044,26-5.591,8.751-9.749,22.864-10.709,35.223-1.343,17.311-.985,27.866-.7,45.3a5.565,5.565,0,0,1-3.736,2.226H413.27V363.689c0-20.177,22.173-55.016,22.173-55.016C439.793,303.99,444.271,310.349,447.316,316.81Z" transform="translate(115.014 12.876)" fill="url(#linear-gradient-13)"></path><path id="Path_108" data-name="Path 108" d="M458.586,403.044c3.122,8.419,5.809,17.311,10.837,22.915,3.224,3.608,4.043,5.3,11.272-3.1,3.518-4.081.64-8.662-1.126-14.138-8.713-27.1-4.632-59.494-4.465-89.919.141-24.45-40.661-43.846-42.3-22.467C428.43,353.4,450.257,380.551,458.586,403.044Z" transform="translate(120.312 7.311)" fill="#0c62ac"></path><path id="Path_109" data-name="Path 109" d="M479.752,423.862c-3.9,3.7-6.013,7.1-9.238,3.506-5.028-5.617-8.879-15.916-12-24.309-8.329-22.492-28.442-52.278-25.781-106.705.934-19.192,34.263-5.591,41.083,15.033a23.208,23.208,0,0,1,1.216,7.434c-.166,30.425-4.248,62.82,4.465,89.919C481.262,414.2,483.68,420.177,479.752,423.862Z" transform="translate(120.385 7.309)" fill="url(#linear-gradient-14)"></path><path id="Path_110" data-name="Path 110" d="M421.814,124.385c8.764.384,16.53,5.591,23.286,11.17a13.447,13.447,0,0,0,3.442,2.316c1.612.64,1.932,1.356,3.646,1.574,6.4.857,13.268,4.824,16.313,10.5s4.069,12.231,4.529,18.654c.41,5.86.537,12.167,4,16.9,5.374,7.331,16.07,7.677,23.926,12.257A25.589,25.589,0,0,1,512.6,213.293c1.382,5.3,1.126,10.862,1.842,16.287s2.738,11.106,7.293,14.074c-8.713-.115-21.264,6.525-29.99,6.4-3.122,0-2.469-6.871-5.463-7.677a28.531,28.531,0,0,1-8.713-4.606A75.206,75.206,0,0,1,450.7,201.625c-1.97-5.719-22.339,23.171-24.719,17.605-12.794-30,11.515-44.985,5.54-46.226-4.939-1.036-10.044.6-15.1.358C386.924,171.968,393.219,123.131,421.814,124.385Z" transform="translate(110.5 -38.177)" fill="#25233a"></path><path id="Path_111" data-name="Path 111" d="M399.963,217.148c-6.32,0-12.564-1.279-18.731-2.648l-21.917-4.734a6.538,6.538,0,0,0-3.173-.154,5.118,5.118,0,0,0-2.725,2.444c-3.71,6.231-.691,14.726,4.875,19.371s12.935,6.4,20.049,7.779c9.493,1.881,19.32,3.48,28.8,1.51,11.707-2.444,28.212-5.847,37.385-13.511,1.2-1-4.2-6.218-3.493-7.6a11.784,11.784,0,0,0,.9-5.118c.077-3.723,13.434-29.018,9.34-31-3.838-1.881-18.948,19.537-21.494,21.866A44.908,44.908,0,0,1,399.963,217.148Z" transform="translate(97.831 -21.688)" fill="#0c62ac"></path><path id="Path_112" data-name="Path 112" d="M443.2,223.847c1.024,1.484,1.906,2.879,1.279,3.339-9.174,7.677-25.678,11.067-37.385,13.511-9.481,1.97-19.307.371-28.8-1.51-7.114-1.407-14.5-3.122-20.049-7.779a18.227,18.227,0,0,1-2.712-2.815.754.754,0,0,1-.09-.128c-3.646-4.772-5.118-11.349-2.073-16.428a5.118,5.118,0,0,1,2.725-2.444,6.539,6.539,0,0,1,3.173.154l21.917,4.721c6.167,1.279,12.411,2.674,18.731,2.648a44.909,44.909,0,0,0,29.811-11.8c2.559-2.329,17.605-23.746,21.495-21.866,4.094,1.983-9.263,27.278-9.34,31a11.783,11.783,0,0,1-.9,5.118c-.371.729.972,2.559,2.137,4.235Z" transform="translate(97.88 -21.851)" fill="url(#linear-gradient-15)"></path><path id="Path_113" data-name="Path 113" d="M353.253,206.339s1.279-2.764,2.725-2.444,5.6,12.935-.653,18.872C355.326,222.767,350.413,212.429,353.253,206.339Z" transform="translate(97.996 -15.959)" fill="url(#linear-gradient-16)"></path><path id="Path_114" data-name="Path 114" d="M443.716,219.859c-9.174,7.677-25.678,11.067-37.385,13.511-9.481,1.97-19.307.371-28.8-1.51-7.114-1.407-14.5-3.122-20.049-7.779a18.228,18.228,0,0,1-2.712-2.815.753.753,0,0,1-.09-.128l.563-10.069c.729.653,4.657,2.559,22.275,7.817,25.755,7.741,57.818-9.186,57.818-9.186l7.024,6.794h0C443.371,218,444.279,219.4,443.716,219.859Z" transform="translate(98.838 -14.524)" opacity="0.17" fill="url(#linear-gradient-17)"></path><path id="Path_115" data-name="Path 115" d="M497.563,339.753a5.45,5.45,0,0,1-1.7,3.659,5.629,5.629,0,0,1-3.838.652c-3.582-.269-7.677-.435-11.86-.9a57.57,57.57,0,0,1-12.974-2.764c-14.714-5.258-28.263-14.624-33.15-16.633-3.506-1.395-17.707,2.29-20.343-.422-6.269-6.4,5.182-16.287,7.139-25.051,3.416-15.353,10.76-30.707,7.5-46.06a106.59,106.59,0,0,0-3.838-12.065c-3.173-9.378-7.05-22.48-4.081-32.319,2.316-7.677,6.026-18.744,12.359-23.977,7.293-6.013,9.839-3.237,19.281-2.981,6.589.179,24.591,7.485,26.574,10.325,20.586,29.709,16.147,86.708,19.4,129.927a77.33,77.33,0,0,1-.461,18.6Z" transform="translate(114.614 -22.619)" fill="#0c62ac"></path><path id="Path_116" data-name="Path 116" d="M485.554,337.319a5.527,5.527,0,0,1-1.689,3.659c-1.088.806-5.642-6.4-6.986-6.551-8.355-.627-13.549,5.348-21.751,3.544-.729-1.714-.243-3.416,2.009-5.118,11.643-8.457,7.446-95.152,4.376-118.758,7.063,2.431,3.838-27.06,5.041-25.269,20.586,29.7,16.147,86.682,19.4,129.914A76.683,76.683,0,0,1,485.554,337.319Z" transform="translate(126.623 -20.184)" fill="url(#linear-gradient-18)"></path><path id="Path_117" data-name="Path 117" d="M469.178,335.325c-2.252,1.65-2.738,3.352-2.009,5.118-11.221-2.469-22.633-11.976-33.15-16.633-3.467-1.51-17.707,2.29-20.343-.422-6.269-6.4,5.182-16.287,7.139-25.051,3.416-15.353,10.76-30.707,7.5-46.06a109.91,109.91,0,0,0-3.838-12.052c-3.173-9.378-7.05-22.48-4.094-32.319,2.329-7.677,6.039-18.744,12.372-23.977,7.293-6.013,9.839-3.237,19.281-2.981,2.457,0,22.352,8.879,26.574,10.325C481.665,214.9,480.821,326.868,469.178,335.325Z" transform="translate(114.608 -22.605)" fill="url(#linear-gradient-19)"></path><path id="Path_118" data-name="Path 118" d="M428.342,230.79s3.838,17.682.627,29.21-11.8,48.222-11.809,49.22,5.578,1.574,5.578,1.574l29.9-21.072,9.135,8.956s19.332-13.4,32.971-33.534l-.448-11.707-64.113,34.852a28.147,28.147,0,0,0,2.559-9.916C433.371,272.244,437,243.354,428.342,230.79Z" transform="translate(116.101 -8.436)" opacity="0.17" fill="url(#linear-gradient-20)"></path><path id="Path_119" data-name="Path 119" d="M423.075,147.35l-4.465,7.881,8.854,25.947,1.842-.589-1-27.188Z" transform="translate(116.979 41.175)" fill="#0c62ac"></path><path id="Path_120" data-name="Path 120" d="M423.075,147.35l-4.465,7.881,8.854,25.947,1.842-.589-1-27.188Z" transform="translate(116.979 41.175)" fill="url(#linear-gradient-21)"></path><path id="Path_121" data-name="Path 121" d="M426.646,212.24c-.192,10.236-.678,28.007.55,26.484,4.4-5.425,26.011-57.434,18.936-58.5C437.624,178.949,427.337,176.594,426.646,212.24Z" transform="translate(118.68 -22.729)" fill="#25233a"></path><path id="Path_122" data-name="Path 122" d="M446.221,185.982s-6.935,9.455-12.615,13.14a1.842,1.842,0,0,1-2.828-1.766,22.789,22.789,0,0,0,0-6.128,9.123,9.123,0,0,0-1.715-4.286,5.515,5.515,0,0,0-1.65-1.407c-5.8-3.237,6.4-27.751,12.027-20.74Z" transform="translate(118.54 -27.229)" fill="url(#linear-gradient-22)"></path><path id="Path_123" data-name="Path 123" d="M396.089,148.913c-2.226,6.858-.857,15.609,5.335,19.294,3.288,1.958,7.5,2.29,10.236,4.913,4.7-5.885,14.675-5.45,18.936-11.643a11.848,11.848,0,0,0,1.42-9.442,20.8,20.8,0,0,0-4.747-8.5,24.309,24.309,0,0,0-10.363-7.331C406.567,132.741,399.287,139.125,396.089,148.913Z" transform="translate(109.933 -35.133)" fill="#25233a"></path><path id="Path_124" data-name="Path 124" d="M404.223,156.228c-.422,1.215,10.811,40.75,29.261,35.684,8.432-2.316,9.737-11.643,10.236-19.192a83.288,83.288,0,0,0-.55-16.364S416.134,121.248,404.223,156.228Z" transform="translate(112.482 -33.607)" fill="url(#linear-gradient-23)"></path><path id="Path_125" data-name="Path 125" d="M464.307,178.366a5.118,5.118,0,0,1-2.955,2.738,10.9,10.9,0,0,1-4.069.589,8.688,8.688,0,0,1-3.582-.64,10.489,10.489,0,0,1-2.776-2.2c.409.55-1.906-1.523-7.4-5.834,0-4.58,2.29-14.406-2.559-13.1-1.894.512-1.919,5.63-2.111,5.988.218-1.151-1.356-3.979-2.073-6.077-3.992.179-8.227.947-13.754-6.116-9.02-11.515-18.693-10.658-18.693-10.658,5.745-3.762,13.2-12.3,28.711-9.9,6.909,1.075,9.8,6.7,10.837,12.615a35.346,35.346,0,0,1,5.118,3.122c5.438,4.133,8.611,10.594,10.619,17.119.832,2.7,1.51,5.45,2.495,8.086a18.849,18.849,0,0,0,2.188,4.273Z" transform="translate(112.518 -35.837)" fill="#25233a"></path><path id="Path_126" data-name="Path 126" d="M330.433,207.583c1.5,2.559,10.389,2.188,12.487,3.3-.691,0-9.391-.384-11.656-.333-1.663,0-1.65,1.958-.422,2.559,2.968,1.51,9.864,1.049,12.231,1.74-1.024-.384-9.557.537-10.645.627-1.471.256-3.032,2.482,1.753,2.93,1.945.179,6.692,0,9.046.512,1.279.243-7.945.678-8.1,2-.32,2.661,9.186,1.983,9.9,2.047,4.478.422,13.14,1.6,16.556,1.279,0-3.582,2.316-8.406-.742-14.074-.461-.857-5.284-3.582-5.783-4.376-2.316-3.634-5.118-6.474-7.92-7.114-4.67-1.049-.55,2.866-.371,6.026.243,4.017-.7,2.853-6.4,1.8C339.184,206.316,328.974,205.152,330.433,207.583Z" transform="translate(91.735 -17.458)" fill="url(#linear-gradient-24)"></path><path id="Path_127" data-name="Path 127" d="M437.976,264.91a26.638,26.638,0,0,0-10.376,1.216.883.883,0,0,0-.5.307.768.768,0,0,0-.077.473,3.109,3.109,0,0,0,2.879,2.329,26.057,26.057,0,0,0,3.979-.243c.665,0,1.535.217,1.548.9a1.28,1.28,0,0,1-.192.589,7.677,7.677,0,0,1-4.555,2.968,37.41,37.41,0,0,1-11.2,1.753,26.251,26.251,0,0,0-5.015.217c-.525.1-1.126.345-1.2.883a1.279,1.279,0,0,0,.576,1.024c2.354,1.97,5.719,2,8.79,1.906l-6.256.525a4.76,4.76,0,0,0-2.93.9,4.094,4.094,0,0,0,2.559,1.983,12.4,12.4,0,0,0,3.314.409l5.041.115a16.632,16.632,0,0,0-6.922,1.28.908.908,0,0,0-.448.307c-.23.4.217.857.627,1.075,3.506,1.842,7.677,1.369,11.63.844l-5.86,1.369c-.269.064-.589.192-.6.461a.448.448,0,0,0,.154.32,1.894,1.894,0,0,0,1.369.448,30.708,30.708,0,0,0,12.487-1.433,39.361,39.361,0,0,0,5.194-2.469,16.114,16.114,0,0,0,2.559-1.574,14.162,14.162,0,0,0,2.124-2.341c1.5-1.932,9.135-5.028,10.453-7.075a1.907,1.907,0,0,0,.345-.793c0-.55.384-2.2,0-2.559-1.356-1.279-3.2-1.356-3.838-3.1-.307-.768-3.966-2.265-4.286-3.019-.448-1.036-3.838.525-4.887.589A44.563,44.563,0,0,1,437.976,264.91Z" transform="translate(115.014 0.996)" fill="url(#linear-gradient-25)"></path><path id="Path_128" data-name="Path 128" d="M453.775,302.621,435.62,281.74s35.479-20.471,34.02-33.816S453.98,218.7,452.176,205.7s19.755-16.863,19.755-16.863c14.611,15.66,17.72,42.695,24.309,64.381C502.061,272.08,453.775,302.621,453.775,302.621Z" transform="translate(121.259 -20.159)" fill="#0c62ac"></path><path id="Path_129" data-name="Path 129" d="M453.767,302.621,443.531,290.8l-7.881-9.058s35.479-20.471,34.02-33.816a27.642,27.642,0,0,0-1.19-5.412c-3.838-12.091-14.714-25.525-16.274-36.771-1.842-12.948,19.716-16.9,19.716-16.9,14.611,15.66,17.72,42.695,24.309,64.381C502.053,272.08,453.767,302.621,453.767,302.621Z" transform="translate(121.507 -20.159)" fill="url(#linear-gradient-26)"></path><path id="Path_130" data-name="Path 130" d="M448.214,200.211l3.186,11.31s-18.961,24.322-23.644,27.5.755-7.561.755-7.561S439.731,209.283,440.588,203,448.214,200.211,448.214,200.211Z" transform="translate(118.53 -17.252)" fill="#0c62ac"></path><path id="Path_131" data-name="Path 131" d="M448.214,200.211l3.186,11.31s-18.961,24.322-23.644,27.5.755-7.561.755-7.561S439.731,209.283,440.588,203,448.214,200.211,448.214,200.211Z" transform="translate(118.53 -17.252)" fill="url(#linear-gradient-27)"></path><path id="Path_132" data-name="Path 132" d="M442.154,177.88s4.516,1.062,6.474,2.84,5.348,17.452,5.348,17.452L435.77,215.214S443.344,185.314,442.154,177.88Z" transform="translate(121.301 -23.221)" fill="#0c62ac"></path><path id="Path_133" data-name="Path 133" d="M442.154,177.88s4.516,1.062,6.474,2.84,5.348,17.452,5.348,17.452L435.77,215.214S443.344,185.314,442.154,177.88Z" transform="translate(121.301 -23.221)" fill="url(#linear-gradient-28)"></path><path id="Path_134" data-name="Path 134" d="M432.917,186.116c-4.235,9.557-4.26,32.4-4.26,32.4L418.28,202.237,431.2,181.83a9.123,9.123,0,0,1,1.714,4.286Z" transform="translate(116.414 -22.118)" fill="#0c62ac"></path><path id="Path_135" data-name="Path 135" d="M432.917,186.116c-4.235,9.557-4.26,32.4-4.26,32.4L418.28,202.237,431.2,181.83a9.123,9.123,0,0,1,1.714,4.286Z" transform="translate(116.414 -22.118)" fill="url(#linear-gradient-29)"></path><path id="Path_136" data-name="Path 136" d="M473.44,418.767s-8.879-23.631-12.679-41.4-5.681-71.994-5.681-71.994a57.576,57.576,0,0,0,12.974,2.764,23.171,23.171,0,0,1,.665,5.566c-.166,30.425-4.248,62.82,4.465,89.919C474.95,409.107,477.368,415.082,473.44,418.767Z" transform="translate(126.697 12.404)" fill="url(#linear-gradient-30)"></path><path id="Path_137" data-name="Path 137" d="M355.164,210.5v.345C354.818,210.538,355.164,210.5,355.164,210.5Z" transform="translate(98.734 -14.106)" fill="url(#linear-gradient-31)"></path><path id="Path_138" data-name="Path 138" d="M117.48,195.57V445.125c0,21.456-15.059,38.869-33.675,38.869s-33.675-17.4-33.675-38.857V195.647Z" transform="translate(8.356 -12.016)" fill="url(#linear-gradient-32)"></path><path id="Path_139" data-name="Path 139" d="M141.176,194.282A10.965,10.965,0,0,1,130.2,205.259H44.962a10.99,10.99,0,1,1,0-21.968H130.2a10.978,10.978,0,0,1,10.978,10.99Z" transform="translate(8.918 -21.711)" fill="#0c62ac"></path><path id="Path_140" data-name="Path 140" d="M141.176,194.282A10.965,10.965,0,0,1,130.2,205.259H44.962a10.99,10.99,0,1,1,0-21.968H130.2a10.978,10.978,0,0,1,10.978,10.99Z" transform="translate(8.918 -21.604)" fill="url(#linear-gradient-33)"></path><path id="Path_141" data-name="Path 141" d="M263.42,127.442V254.554a8.955,8.955,0,0,1-.512,3.019c-1.766,5.015-9.673,17.989-26.484,27.367-39.867,22.237-52.866,77.918-54.3,79.568-4.99,5.745-17.055,16.287-30.233,3.135-17.3-17.234,19.614-67.286,31.423-79.62,16.633-17.349,51.664-22.147,52.15-38.473.4-13.511.141-94.448,0-122.084a9.2,9.2,0,0,1,9.212-9.238h9.481a9.212,9.212,0,0,1,9.263,9.212Z" transform="translate(40.706 -39.89)" fill="url(#linear-gradient-34)"></path><circle id="Ellipse_45" data-name="Ellipse 45" cx="20.65" cy="20.65" r="20.65" transform="translate(188.068 349.441)" fill="url(#linear-gradient-35)"></circle><path id="Path_142" data-name="Path 142" d="M475.948,253.487c-3.058,8.623-32.447,25.589-32.447,25.589l-7.881-9.058S471.1,249.547,469.64,236.2a27.65,27.65,0,0,0-1.19-5.412S479.006,244.864,475.948,253.487Z" transform="translate(121.259 -8.436)" fill="url(#linear-gradient-36)"></path><path id="Path_143" data-name="Path 143" d="M431.59,161.591s2.559.218,1.842-1.855-.09-4.811,1.356-4.593.448,8.176-.525,8.79S431.59,161.591,431.59,161.591Z" transform="translate(120.133 -29.578)" fill="url(#linear-gradient-37)"></path><circle id="Ellipse_46" data-name="Ellipse 46" cx="19.217" cy="19.217" r="19.217" transform="translate(231.3 0)" fill="#a0c2df" opacity="0.25"></circle><circle id="Ellipse_47" data-name="Ellipse 47" cx="14.406" cy="14.406" r="14.406" transform="translate(116.611 74.016)" fill="#a0c2df" opacity="0.25"></circle></g><text id="Welcome" transform="translate(-110.09 7.02) rotate(90)" fill="#0f62ac" font-size="53" font-family="SegoeUI-Bold, Segoe UI" font-weight="700"><tspan x="0" y="0">Welcome</tspan></text></g></g></svg>